<svg xmlns="http://www.w3.org/2000/svg" viewBox="0 0 512 512">
  <defs>
    <linearGradient id="grad" x1="0%" y1="0%" x2="100%" y2="100%">
      <stop offset="0%" stop-color="#16a34a"/>
      <stop offset="100%" stop-color="#86efac"/>
    </linearGradient>
  </defs>
  <rect width="512" height="512" rx="100" fill="url(#grad)"/>
  <!-- Wallet Body -->
  <path d="M122 181 C122 154 144 133 170 133 H342 C368 133 390 154 390 181 V331 C390 357 368 379 342 379 H170 C144 379 122 357 122 331 V181 Z" fill="white"/>
  <!-- Wallet Flap/Detail -->
  <path d="M320 226 H390 V280 H320 C306 280 296 268 296 253 C296 238 306 226 320 226 Z" fill="#e2e8f0"/>
  <!-- Upward Graph -->
  <polyline points="173 293, 226 240, 280 266, 333 200" fill="none" stroke="#16a34a" stroke-width="16" stroke-linecap="round" stroke-linejoin="round"/>
  <circle cx="333" cy="200" r="8" fill="#16a34a"/>
</svg>